#!OML:ASF F:\VICON\USERDATA\INSTALL\rory3\rory3.ASF
:FULLY-SPECIFIED
:DEGREES
88
root -0.7688208837140519 17.73995501093194 10.229559256841474 3.642551682242152 -4.185173449958976 -2.471021072320908
lfemur -14.37334036906781 2.455949719472245 -18.81458133749281
ltibia 82.96574945165011
lfoot 17.513915306936667 -13.602260586249367
ltoes -18.770949325759727
rfemur -15.083274191789624 5.181399490240047 31.223465692223836
rtibia 68.65581932246293
rfoot 0.4433521136727614 -8.310292530624462
rtoes -18.083642921424005
lowerback 14.736490723929528 0.8683407709726705 1.6737943724766116
upperback -1.0756784177420786 1.591522473071508 1.6954772009125727
thorax -9.050567552144747 0.7856665662409452 0.27911452693506816
lowerneck -19.07628212390414 -3.952510527750524 -1.8676923835169599
upperneck 13.3620062476197 -5.232981668695771 2.030955129408874
head 7.8122840346403475 -2.383036825856113 0.36919391284969594
lclavicle 1.1245391003034808e-15 -1.4766016290315337e-15
lhumerus -52.14872394556307 -13.640196036916292 98.11251163733037
lradius 104.0539627768198
lwrist 27.907874851047936
lhand -29.452721724505984 -0.7503719256503143
lfingers 7.125019999999998
lthumb -2.9616013220896917 29.33825075565537
rclavicle 1.1245391004011946e-15 -1.476601628964202e-15
rhumerus -58.36352096799597 7.995189115131453 -97.86587931512977
rradius 121.52830949676358
rwrist -14.764750495213969
rhand -19.460173336262308 41.08279177105657
rfingers 7.125019999999998
rthumb 5.598980756870362 11.623279176719764
89
root -0.7721368121731468 17.73064732151799 10.60430120927554 3.5222446463722896 -4.076082242622354 -2.3775072061577696
lfemur -15.408018410778501 2.541341790686814 -18.79499270021401
ltibia 84.68228275915831
lfoot 16.263177681280798 -14.529660859754879
ltoes -18.934397182743268
rfemur -14.252970341587464 5.246084769138189 31.14862624448642
rtibia 68.42419725878224
rfoot 0.7301095269232425 -8.56869444418537
rtoes -18.32115472498416
lowerback 14.819585184441474 0.891203836062662 1.6142875620607102
upperback -1.0012287482601312 1.6089696377924017 1.5999690438730227
thorax -9.001043851653582 0.7964894546102146 0.27632372866768656
lowerneck -19.09790717070734 -4.065114454486404 -1.8632321368260474
upperneck 13.088364840354533 -5.401028097093394 2.0365945750125984
head 7.718681788373152 -2.467193965225285 0.35475675152487285
lclavicle 1.124539100301267e-15 -1.476601629033411e-15
lhumerus -51.26130998019854 -13.886882344457634 98.10176368834925
lradius 103.7933043195666
lwrist 27.879324969274737
lhand -29.47677563494975 -0.6480274710242416
lfingers 7.125019999999998
lthumb -2.8468456028716425 29.467944233506973
rclavicle 1.1245391003993266e-15 -1.4766016289658366e-15
rhumerus -58.34428598719803 7.8108735889021315 -97.59759033111624
rradius 121.52112648856411
rwrist -14.570077113334257
rhand -19.41173822978183 40.888466365871345
rfingers 7.125019999999998
rthumb 5.61337949454232 11.291263291545302
90
root -0.7679195499022202 17.722420227684605 11.041865244759201 3.4053064956289707 -3.984621904818386 -2.2918781186694464
lfemur -16.393405511536056 2.639482988051599 -18.78115304841794
ltibia 86.22789213442724
lfoot 16.19730836462789 -14.543712585907972
ltoes -17.020346286415183
rfemur -13.476225932684088 5.223917569803169 31.075559795900453
rtibia 68.37895874443277
rfoot 0.7430248840651399 -8.725320507624453
rtoes -17.172161939051872
lowerback 14.849377330623373 0.9147793713196446 1.575519518145502
upperback -0.9116661093043502 1.6255936516418454 1.4598133986532307
thorax -8.938143586064674 0.805441061466486 0.2535854320621465
lowerneck -19.130843852601526 -4.1760832872543405 -1.851354059314335
upperneck 12.784815914310656 -5.5647612557591115 2.0494573217355523
head 7.602899236830174 -2.5493686782873386 0.34317347322824737
lclavicle 1.1245391002989186e-15 -1.4766016290354186e-15
lhumerus -50.30251370160626 -14.116434902008747 98.11221599685358
lradius 103.583690995709
lwrist 27.52213863529404
lhand -29.47861643142718 -0.4502539929461675
lfingers 7.125019999999998
lthumb -2.925178050185073 29.534959778850293
rclavicle 1.1245391003968435e-15 -1.4766016289679379e-15
rhumerus -58.282000589702676 7.627724515575071 -97.33759985884357
rradius 121.48524049939202
rwrist -14.379285291384232
rhand -19.378472081516914 40.55953638866093
rfingers 7.125019999999998
rthumb 5.61354507326278 10.91639813742967
91
root -0.7504892278137194 17.703424504239866 11.614365538743805 3.277450179902381 -3.8906251514489867 -2.195402284745256
lfemur -17.33632284288121 2.745130758445379 -18.79464555496676
ltibia 87.57657217748819
lfoot 16.05420652046385 -14.12705529279496
ltoes -15.171603394966397
rfemur -12.767084307080204 5.1472807468853805 30.9735502395275
rtibia 68.59582029787758
rfoot 0.33543968550673364 -8.80846494959705
rtoes -17.02205227278392
lowerback 14.811352995622027 0.9341446751571698 1.550540370299866
upperback -0.8613800632653672 1.6245001264125234 1.2784250455555557
thorax -8.891784366210873 0.8083660400570931 0.19200938935853523
lowerneck -19.15876451414839 -4.279543609978246 -1.8161260163814845
upperneck 12.454733186755197 -5.720074312292384 2.0597665629094424
head 7.452933639809123 -2.6292858583917997 0.3348437127510485
lclavicle 1.124539100300486e-15 -1.4766016290344162e-15
lhumerus -49.35808447609 -14.250655086292078 98.10820031618098
lradius 103.43960136757721
lwrist 27.019820950743146
lhand -29.540542394732547 -0.42898938767245154
lfingers 7.125019999999998
lthumb -2.974961453575152 29.528557562846057
rclavicle 1.124539100396079e-15 -1.4766016289686453e-15
rhumerus -58.25659867614688 7.434390129920707 -97.14377207995422
rradius 121.44520045974254
rwrist -14.200426721336832
rhand -19.36424732270136 40.204885915731246
rfingers 7.125019999999998
rthumb 5.597040542697191 10.547735272154004
92
root -0.7227468926609901 17.67757448965234 12.271223172863754 3.1396537033522978 -3.734667551357724 -2.0778345470014745
lfemur -18.240949788581755 2.8342262135755334 -18.859215642521793
ltibia 88.71706736829975
lfoot 15.121599543471467 -13.352111490044729
ltoes -14.951988672857107
rfemur -12.121706616478672 4.983971299316046 30.83124401135957
rtibia 69.06504413571733
rfoot -0.07612178763094635 -8.729811739871781
rtoes -15.993722538402388
lowerback 14.730665664193953 0.9419752845886888 1.5285655241050138
upperback -0.8365227634725942 1.6056990684206582 1.067963525341719
thorax -8.845841577600567 0.7962834866038099 0.09724717040212327
lowerneck -19.162131336945016 -4.373625048093805 -1.7890715126910832
upperneck 12.086821577690504 -5.856474037522692 2.074828161647201
head 7.272022532416551 -2.700298569642633 0.3330973302739893
lclavicle 1.1245391003025622e-15 -1.476601629033037e-15
lhumerus -48.56031131209771 -14.32455935677356 98.07331845210737
lradius 103.43488989349544
lwrist 26.403510888403165
lhand -29.80149933939844 -0.4320310620097837
lfingers 7.125019999999998
lthumb -3.207967237666809 29.444001129437044
rclavicle 1.124539100395935e-15 -1.476601628968899e-15
rhumerus -58.245937769518065 7.244862754354281 -97.00579091799212
rradius 121.39349690362641
rwrist -13.936643508511208
rhand -19.36382770699652 39.8481698048017
rfingers 7.125019999999998
rthumb 5.5928364332755685 10.241704399126457
